<svg data-v-423bf9ae="" xmlns="http://www.w3.org/2000/svg" viewBox="0 0 439 90" class="iconLeft"><!----><!----><!----><g data-v-423bf9ae="" id="926ec001-f2d5-4459-93a9-47533e85cc1a" fill="white" transform="matrix(5.5147058243466915,0,0,5.5147058243466915,165.82874982659044,-1.9852939950863018)"><path d="M1.43 13.78L2.59 13.78L2.59 10.11L4.24 10.11C6.26 10.11 7.63 9.20 7.63 7.25C7.63 5.22 6.27 4.54 4.24 4.54L1.43 4.54ZM2.59 9.16L2.59 5.47L4.09 5.47C5.68 5.47 6.47 5.91 6.47 7.25C6.47 8.57 5.70 9.16 4.09 9.16ZM12.88 5.04C13.43 5.04 13.86 4.65 13.86 4.07C13.86 3.49 13.43 3.08 12.88 3.08C12.33 3.08 11.90 3.49 11.90 4.07C11.90 4.65 12.33 5.04 12.88 5.04ZM9.80 13.78L16.24 13.78L16.24 12.82L13.59 12.82L13.59 6.64L9.80 6.64L9.80 7.57L12.45 7.57L12.45 12.82L9.80 12.82ZM21.64 13.96C22.65 13.96 23.60 13.54 24.35 12.84L23.84 12.10C23.27 12.60 22.57 13.01 21.73 13.01C20.16 13.01 19.11 11.89 19.11 10.22C19.11 8.55 20.19 7.42 21.76 7.42C22.47 7.42 23.06 7.73 23.62 8.26L24.19 7.52C23.63 6.94 22.82 6.47 21.71 6.47C19.66 6.47 17.92 7.83 17.92 10.22C17.92 12.59 19.52 13.96 21.64 13.96ZM26.68 13.78L27.83 13.78L27.83 11.83L29.44 10.16L31.95 13.78L33.24 13.78L30.16 9.46L32.87 6.64L31.56 6.64L27.89 10.46L27.83 10.46L27.83 3.60L26.68 3.60ZM38.22 13.96C39.31 13.96 40.17 13.57 40.84 13.12L40.43 12.35C39.80 12.77 39.16 13.02 38.36 13.02C36.88 13.02 35.81 12.03 35.76 10.49L41.08 10.49C41.10 10.30 41.12 10.05 41.12 9.81C41.12 7.80 39.97 6.47 38.02 6.47C36.26 6.47 34.57 7.90 34.57 10.22C34.57 12.56 36.20 13.96 38.22 13.96ZM35.74 9.65C35.92 8.22 36.93 7.38 38.04 7.38C39.30 7.38 40.05 8.19 40.05 9.65ZM44.04 13.78L45.19 13.78L45.19 9.56C46.00 8.06 46.97 7.50 47.99 7.50C48.52 7.50 48.78 7.57 49.25 7.76L49.52 6.76C49.10 6.54 48.68 6.47 48.17 6.47C46.91 6.47 45.85 7.20 45.14 8.34L45.09 8.34L45.00 6.64L44.04 6.64Z"></path></g><!----><g data-v-423bf9ae="" id="ee83f9fd-8520-4197-b76f-3d04740bcb8c" transform="matrix(4.803586662404586,0,0,4.803586662404586,0.14261340152661717,-31.22538662899096)" stroke="none" fill="white"><path d="M16 19.586l7.496-12.954H8.504zM7.496 12.414L0 25.368h14.992zM24.504 12.414l-7.496 12.954H32z"></path></g><!----></svg>